<mxfile host="app.diagrams.net" modified="2021-10-24T12:57:40.264Z" agent="5.0 (Windows NT 10.0; Win64; x64) AppleWebKit/537.36 (KHTML, like Gecko) Chrome/94.0.4606.81 Safari/537.36" etag="t-ZAUSIGcj6dKc6OvCw4" version="15.5.8" type="github">
  <diagram id="JaL8-ftLEz_z9ybGrZQc" name="Page-1">
    <mxGraphModel dx="3034" dy="1366" grid="0" gridSize="10" guides="1" tooltips="1" connect="1" arrows="1" fold="1" page="0" pageScale="1" pageWidth="827" pageHeight="1169" math="0" shadow="0">
      <root>
        <mxCell id="0" />
        <mxCell id="1" parent="0" />
        <mxCell id="obgGES1YlGBp-avRp0bC-5" value="User" style="swimlane;" vertex="1" parent="1">
          <mxGeometry x="-657" y="101.5" width="312" height="404" as="geometry" />
        </mxCell>
        <mxCell id="obgGES1YlGBp-avRp0bC-7" value="" style="sketch=0;aspect=fixed;pointerEvents=1;shadow=0;dashed=0;html=1;strokeColor=none;labelPosition=center;verticalLabelPosition=bottom;verticalAlign=top;align=center;fillColor=#00188D;shape=mxgraph.azure.user" vertex="1" parent="obgGES1YlGBp-avRp0bC-5">
          <mxGeometry x="103" y="49" width="47" height="50" as="geometry" />
        </mxCell>
        <mxCell id="obgGES1YlGBp-avRp0bC-8" value="" style="sketch=0;aspect=fixed;pointerEvents=1;shadow=0;dashed=0;html=1;strokeColor=none;labelPosition=center;verticalLabelPosition=bottom;verticalAlign=top;align=center;fillColor=#00188D;shape=mxgraph.azure.user" vertex="1" parent="obgGES1YlGBp-avRp0bC-5">
          <mxGeometry x="103.5" y="166" width="47" height="50" as="geometry" />
        </mxCell>
        <mxCell id="obgGES1YlGBp-avRp0bC-9" value="" style="sketch=0;aspect=fixed;pointerEvents=1;shadow=0;dashed=0;html=1;strokeColor=none;labelPosition=center;verticalLabelPosition=bottom;verticalAlign=top;align=center;fillColor=#00188D;shape=mxgraph.azure.user" vertex="1" parent="obgGES1YlGBp-avRp0bC-5">
          <mxGeometry x="103" y="283" width="47" height="50" as="geometry" />
        </mxCell>
        <mxCell id="obgGES1YlGBp-avRp0bC-14" value="User1" style="whiteSpace=wrap;html=1;" vertex="1" parent="obgGES1YlGBp-avRp0bC-5">
          <mxGeometry x="91.5" y="107" width="70" height="21" as="geometry" />
        </mxCell>
        <mxCell id="obgGES1YlGBp-avRp0bC-16" value="User2" style="whiteSpace=wrap;html=1;" vertex="1" parent="obgGES1YlGBp-avRp0bC-5">
          <mxGeometry x="91.5" y="225" width="70" height="21" as="geometry" />
        </mxCell>
        <mxCell id="obgGES1YlGBp-avRp0bC-15" value="User-N" style="whiteSpace=wrap;html=1;" vertex="1" parent="obgGES1YlGBp-avRp0bC-5">
          <mxGeometry x="92" y="344" width="70" height="21" as="geometry" />
        </mxCell>
        <mxCell id="obgGES1YlGBp-avRp0bC-18" value="" style="sketch=0;aspect=fixed;pointerEvents=1;shadow=0;dashed=0;html=1;strokeColor=none;labelPosition=center;verticalLabelPosition=bottom;verticalAlign=top;align=center;fillColor=#00188D;shape=mxgraph.azure.laptop" vertex="1" parent="obgGES1YlGBp-avRp0bC-5">
          <mxGeometry x="166" y="73" width="50" height="30" as="geometry" />
        </mxCell>
        <mxCell id="obgGES1YlGBp-avRp0bC-19" value="" style="sketch=0;aspect=fixed;pointerEvents=1;shadow=0;dashed=0;html=1;strokeColor=none;labelPosition=center;verticalLabelPosition=bottom;verticalAlign=top;align=center;fillColor=#00188D;shape=mxgraph.azure.laptop" vertex="1" parent="obgGES1YlGBp-avRp0bC-5">
          <mxGeometry x="162" y="185.5" width="50" height="30" as="geometry" />
        </mxCell>
        <mxCell id="obgGES1YlGBp-avRp0bC-20" value="" style="sketch=0;aspect=fixed;pointerEvents=1;shadow=0;dashed=0;html=1;strokeColor=none;labelPosition=center;verticalLabelPosition=bottom;verticalAlign=top;align=center;fillColor=#00188D;shape=mxgraph.azure.laptop" vertex="1" parent="obgGES1YlGBp-avRp0bC-5">
          <mxGeometry x="161.5" y="301" width="50" height="30" as="geometry" />
        </mxCell>
        <mxCell id="obgGES1YlGBp-avRp0bC-21" value="Internet" style="sketch=0;aspect=fixed;pointerEvents=1;shadow=0;dashed=0;html=1;strokeColor=none;labelPosition=center;verticalLabelPosition=bottom;verticalAlign=top;align=center;fillColor=#00188D;shape=mxgraph.mscae.enterprise.internet_hollow" vertex="1" parent="1">
          <mxGeometry x="-247" y="268.21000000000004" width="109" height="67.58" as="geometry" />
        </mxCell>
        <mxCell id="obgGES1YlGBp-avRp0bC-22" value="" style="sketch=0;aspect=fixed;pointerEvents=1;shadow=0;dashed=0;html=1;strokeColor=none;labelPosition=center;verticalLabelPosition=bottom;verticalAlign=top;align=center;fillColor=#00188D;shape=mxgraph.mscae.enterprise.wireless_connection;direction=north;" vertex="1" parent="1">
          <mxGeometry x="-213" y="289" width="50" height="42" as="geometry" />
        </mxCell>
        <mxCell id="obgGES1YlGBp-avRp0bC-23" value="" style="sketch=0;aspect=fixed;pointerEvents=1;shadow=0;dashed=0;html=1;strokeColor=none;labelPosition=center;verticalLabelPosition=bottom;verticalAlign=top;align=center;fillColor=#00188D;shape=mxgraph.mscae.enterprise.gateway" vertex="1" parent="1">
          <mxGeometry x="-325" y="277" width="50" height="50" as="geometry" />
        </mxCell>
        <mxCell id="obgGES1YlGBp-avRp0bC-24" value="" style="sketch=0;aspect=fixed;pointerEvents=1;shadow=0;dashed=0;html=1;strokeColor=none;labelPosition=center;verticalLabelPosition=bottom;verticalAlign=top;align=center;fillColor=#00188D;shape=mxgraph.mscae.enterprise.gateway" vertex="1" parent="1">
          <mxGeometry x="-103" y="277" width="50" height="50" as="geometry" />
        </mxCell>
        <mxCell id="obgGES1YlGBp-avRp0bC-25" value="" style="sketch=0;aspect=fixed;pointerEvents=1;shadow=0;dashed=0;html=1;strokeColor=none;labelPosition=center;verticalLabelPosition=bottom;verticalAlign=top;align=center;fillColor=#00188D;shape=mxgraph.mscae.enterprise.d" vertex="1" parent="1">
          <mxGeometry x="-399" y="277" width="40" height="50" as="geometry" />
        </mxCell>
        <mxCell id="obgGES1YlGBp-avRp0bC-31" value="Cloud                                                                                              Data" style="swimlane;" vertex="1" parent="1">
          <mxGeometry x="13" y="98.5" width="670" height="407" as="geometry" />
        </mxCell>
        <mxCell id="obgGES1YlGBp-avRp0bC-32" value="" style="sketch=0;aspect=fixed;pointerEvents=1;shadow=0;dashed=0;html=1;strokeColor=none;labelPosition=center;verticalLabelPosition=bottom;verticalAlign=top;align=center;fillColor=#00188D;shape=mxgraph.mscae.enterprise.database_generic" vertex="1" parent="obgGES1YlGBp-avRp0bC-31">
          <mxGeometry x="158" y="41" width="37" height="50" as="geometry" />
        </mxCell>
        <mxCell id="obgGES1YlGBp-avRp0bC-33" value="Database" style="rounded=1;whiteSpace=wrap;html=1;" vertex="1" parent="obgGES1YlGBp-avRp0bC-31">
          <mxGeometry x="141.5" y="94" width="70" height="26" as="geometry" />
        </mxCell>
        <mxCell id="obgGES1YlGBp-avRp0bC-34" value="Application models" style="rounded=1;whiteSpace=wrap;html=1;" vertex="1" parent="obgGES1YlGBp-avRp0bC-31">
          <mxGeometry x="117.25" y="163" width="118.5" height="52" as="geometry" />
        </mxCell>
        <mxCell id="obgGES1YlGBp-avRp0bC-35" value="Server" style="rounded=1;whiteSpace=wrap;html=1;" vertex="1" parent="obgGES1YlGBp-avRp0bC-31">
          <mxGeometry x="129.5" y="256" width="94.5" height="49" as="geometry" />
        </mxCell>
        <mxCell id="obgGES1YlGBp-avRp0bC-36" value="Middle ware" style="rounded=1;whiteSpace=wrap;html=1;" vertex="1" parent="obgGES1YlGBp-avRp0bC-31">
          <mxGeometry x="17" y="347" width="87" height="37" as="geometry" />
        </mxCell>
        <mxCell id="obgGES1YlGBp-avRp0bC-37" value="" style="sketch=0;aspect=fixed;pointerEvents=1;shadow=0;dashed=0;html=1;strokeColor=none;labelPosition=center;verticalLabelPosition=bottom;verticalAlign=top;align=center;fillColor=#00188D;shape=mxgraph.azure.server_rack" vertex="1" parent="obgGES1YlGBp-avRp0bC-31">
          <mxGeometry x="270" y="284" width="50" height="50" as="geometry" />
        </mxCell>
        <mxCell id="obgGES1YlGBp-avRp0bC-38" value="Trorage" style="rounded=1;whiteSpace=wrap;html=1;" vertex="1" parent="obgGES1YlGBp-avRp0bC-31">
          <mxGeometry x="266.5" y="347" width="57" height="27" as="geometry" />
        </mxCell>
        <mxCell id="obgGES1YlGBp-avRp0bC-39" value="Runtime" style="rounded=1;whiteSpace=wrap;html=1;" vertex="1" parent="obgGES1YlGBp-avRp0bC-31">
          <mxGeometry x="17" y="178" width="74" height="26" as="geometry" />
        </mxCell>
        <mxCell id="obgGES1YlGBp-avRp0bC-40" value="O/S" style="rounded=1;whiteSpace=wrap;html=1;arcSize=0;" vertex="1" parent="obgGES1YlGBp-avRp0bC-31">
          <mxGeometry x="278" y="175" width="34" height="32" as="geometry" />
        </mxCell>
        <mxCell id="obgGES1YlGBp-avRp0bC-41" value="Vitualization" style="rounded=1;whiteSpace=wrap;html=1;" vertex="1" parent="obgGES1YlGBp-avRp0bC-31">
          <mxGeometry x="17" y="267" width="88" height="37" as="geometry" />
        </mxCell>
        <mxCell id="obgGES1YlGBp-avRp0bC-44" value="" style="sketch=0;aspect=fixed;pointerEvents=1;shadow=0;dashed=0;html=1;strokeColor=none;labelPosition=center;verticalLabelPosition=bottom;verticalAlign=top;align=center;fillColor=#00188D;shape=mxgraph.mscae.enterprise.document" vertex="1" parent="obgGES1YlGBp-avRp0bC-31">
          <mxGeometry x="489" y="41" width="40" height="50" as="geometry" />
        </mxCell>
        <mxCell id="obgGES1YlGBp-avRp0bC-45" value="Document report" style="rounded=1;whiteSpace=wrap;html=1;" vertex="1" parent="obgGES1YlGBp-avRp0bC-31">
          <mxGeometry x="469" y="94" width="80" height="33" as="geometry" />
        </mxCell>
        <mxCell id="obgGES1YlGBp-avRp0bC-46" value="" style="sketch=0;aspect=fixed;pointerEvents=1;shadow=0;dashed=0;html=1;strokeColor=none;labelPosition=center;verticalLabelPosition=bottom;verticalAlign=top;align=center;fillColor=#00188D;shape=mxgraph.mscae.enterprise.database_generic" vertex="1" parent="obgGES1YlGBp-avRp0bC-31">
          <mxGeometry x="489" y="164" width="37" height="50" as="geometry" />
        </mxCell>
        <mxCell id="obgGES1YlGBp-avRp0bC-47" value="Data analysis" style="rounded=1;whiteSpace=wrap;html=1;" vertex="1" parent="obgGES1YlGBp-avRp0bC-31">
          <mxGeometry x="465" y="216" width="88" height="36" as="geometry" />
        </mxCell>
        <mxCell id="obgGES1YlGBp-avRp0bC-48" value="" style="shape=parallelogram;html=1;strokeWidth=2;perimeter=parallelogramPerimeter;whiteSpace=wrap;rounded=1;arcSize=12;size=0.23;fillColor=#000099;" vertex="1" parent="obgGES1YlGBp-avRp0bC-31">
          <mxGeometry x="470" y="287" width="78" height="38" as="geometry" />
        </mxCell>
        <mxCell id="obgGES1YlGBp-avRp0bC-51" value="User data" style="rounded=1;whiteSpace=wrap;html=1;fillColor=#FFFFFF;" vertex="1" parent="obgGES1YlGBp-avRp0bC-31">
          <mxGeometry x="471" y="340" width="73" height="29" as="geometry" />
        </mxCell>
        <mxCell id="obgGES1YlGBp-avRp0bC-43" value="" style="endArrow=none;html=1;rounded=0;entryX=0.5;entryY=0;entryDx=0;entryDy=0;exitX=0.5;exitY=1;exitDx=0;exitDy=0;" edge="1" parent="1" source="obgGES1YlGBp-avRp0bC-31" target="obgGES1YlGBp-avRp0bC-31">
          <mxGeometry width="50" height="50" relative="1" as="geometry">
            <mxPoint x="392" y="356" as="sourcePoint" />
            <mxPoint x="442" y="306" as="targetPoint" />
          </mxGeometry>
        </mxCell>
        <mxCell id="obgGES1YlGBp-avRp0bC-59" value="" style="endArrow=classic;startArrow=classic;html=1;rounded=0;entryX=0;entryY=0.5;entryDx=0;entryDy=0;entryPerimeter=0;exitX=0.92;exitY=0.5;exitDx=0;exitDy=0;exitPerimeter=0;" edge="1" parent="1" source="obgGES1YlGBp-avRp0bC-21" target="obgGES1YlGBp-avRp0bC-24">
          <mxGeometry width="50" height="50" relative="1" as="geometry">
            <mxPoint x="-352" y="447" as="sourcePoint" />
            <mxPoint x="-302" y="397" as="targetPoint" />
          </mxGeometry>
        </mxCell>
        <mxCell id="obgGES1YlGBp-avRp0bC-60" value="" style="endArrow=classic;startArrow=classic;html=1;rounded=0;entryX=0;entryY=0.5;entryDx=0;entryDy=0;exitX=1;exitY=0.5;exitDx=0;exitDy=0;exitPerimeter=0;" edge="1" parent="1" source="obgGES1YlGBp-avRp0bC-24" target="obgGES1YlGBp-avRp0bC-31">
          <mxGeometry width="50" height="50" relative="1" as="geometry">
            <mxPoint x="-211" y="284" as="sourcePoint" />
            <mxPoint x="-161" y="234" as="targetPoint" />
          </mxGeometry>
        </mxCell>
        <mxCell id="obgGES1YlGBp-avRp0bC-61" value="" style="endArrow=classic;startArrow=classic;html=1;rounded=0;entryX=0.62;entryY=0.525;entryDx=0;entryDy=0;entryPerimeter=0;exitX=0;exitY=0.5;exitDx=0;exitDy=0;exitPerimeter=0;" edge="1" parent="1" source="obgGES1YlGBp-avRp0bC-23" target="obgGES1YlGBp-avRp0bC-25">
          <mxGeometry width="50" height="50" relative="1" as="geometry">
            <mxPoint x="-211" y="284" as="sourcePoint" />
            <mxPoint x="-161" y="234" as="targetPoint" />
          </mxGeometry>
        </mxCell>
        <mxCell id="obgGES1YlGBp-avRp0bC-62" value="" style="endArrow=classic;startArrow=classic;html=1;rounded=0;exitX=1;exitY=0.5;exitDx=0;exitDy=0;exitPerimeter=0;entryX=0.06;entryY=0.5;entryDx=0;entryDy=0;entryPerimeter=0;" edge="1" parent="1" source="obgGES1YlGBp-avRp0bC-23" target="obgGES1YlGBp-avRp0bC-21">
          <mxGeometry width="50" height="50" relative="1" as="geometry">
            <mxPoint x="-211" y="284" as="sourcePoint" />
            <mxPoint x="-161" y="234" as="targetPoint" />
          </mxGeometry>
        </mxCell>
        <mxCell id="obgGES1YlGBp-avRp0bC-65" style="edgeStyle=orthogonalEdgeStyle;rounded=0;orthogonalLoop=1;jettySize=auto;html=1;exitX=0.92;exitY=0.5;exitDx=0;exitDy=0;exitPerimeter=0;entryX=0.5;entryY=1;entryDx=0;entryDy=0;entryPerimeter=0;" edge="1" parent="1" source="obgGES1YlGBp-avRp0bC-20" target="obgGES1YlGBp-avRp0bC-25">
          <mxGeometry relative="1" as="geometry" />
        </mxCell>
        <mxCell id="obgGES1YlGBp-avRp0bC-66" style="edgeStyle=orthogonalEdgeStyle;rounded=0;orthogonalLoop=1;jettySize=auto;html=1;exitX=0.92;exitY=0.5;exitDx=0;exitDy=0;exitPerimeter=0;entryX=0.5;entryY=0.045;entryDx=0;entryDy=0;entryPerimeter=0;" edge="1" parent="1" source="obgGES1YlGBp-avRp0bC-18" target="obgGES1YlGBp-avRp0bC-25">
          <mxGeometry relative="1" as="geometry" />
        </mxCell>
        <mxCell id="obgGES1YlGBp-avRp0bC-67" style="edgeStyle=orthogonalEdgeStyle;rounded=0;orthogonalLoop=1;jettySize=auto;html=1;exitX=0.92;exitY=0.5;exitDx=0;exitDy=0;exitPerimeter=0;entryX=0;entryY=0.5;entryDx=0;entryDy=0;entryPerimeter=0;" edge="1" parent="1" source="obgGES1YlGBp-avRp0bC-19" target="obgGES1YlGBp-avRp0bC-25">
          <mxGeometry relative="1" as="geometry" />
        </mxCell>
        <mxCell id="obgGES1YlGBp-avRp0bC-68" value="ATN" style="swimlane;fillColor=#E6E6E6;" vertex="1" parent="1">
          <mxGeometry x="-675" y="61" width="1374" height="461" as="geometry" />
        </mxCell>
      </root>
    </mxGraphModel>
  </diagram>
</mxfile>
